<svg width="48" height="48" viewBox="0 0 48 48" fill="none" xmlns="http://www.w3.org/2000/svg">
<circle cx="24" cy="24" r="24" fill="#C4D6ED"/>
<g clip-path="url(#clip0_160_1120)">
<path d="M21.75 13.5C21.1533 13.5 20.581 13.7371 20.159 14.159C19.7371 14.581 19.5 15.1533 19.5 15.75V16.5H14.25C13.6533 16.5 13.081 16.7371 12.659 17.159C12.2371 17.581 12 18.1533 12 18.75V30.75C12 31.3467 12.2371 31.919 12.659 32.341C13.081 32.7629 13.6533 33 14.25 33H33.75C34.3467 33 34.919 32.7629 35.341 32.341C35.7629 31.919 36 31.3467 36 30.75V18.75C36 18.1533 35.7629 17.581 35.341 17.159C34.919 16.7371 34.3467 16.5 33.75 16.5H28.5V15.75C28.5 15.1533 28.2629 14.581 27.841 14.159C27.419 13.7371 26.8467 13.5 26.25 13.5H21.75ZM21.75 15H26.25C26.4489 15 26.6397 15.079 26.7803 15.2197C26.921 15.3603 27 15.5511 27 15.75V16.5H21V15.75C21 15.5511 21.079 15.3603 21.2197 15.2197C21.3603 15.079 21.5511 15 21.75 15ZM24.579 25.371L34.5 22.7265V30.75C34.5 30.9489 34.421 31.1397 34.2803 31.2803C34.1397 31.421 33.9489 31.5 33.75 31.5H14.25C14.0511 31.5 13.8603 31.421 13.7197 31.2803C13.579 31.1397 13.5 30.9489 13.5 30.75V22.725L23.421 25.371C23.8004 25.472 24.1996 25.472 24.579 25.371ZM14.25 18H33.75C33.9489 18 34.1397 18.079 34.2803 18.2197C34.421 18.3603 34.5 18.5511 34.5 18.75V21.174L24.1935 23.922C24.0667 23.9559 23.9333 23.9559 23.8065 23.922L13.5 21.174V18.75C13.5 18.5511 13.579 18.3603 13.7197 18.2197C13.8603 18.079 14.0511 18 14.25 18Z" fill="#5C6F7F"/>
</g>
<defs>
<clipPath id="clip0_160_1120">
<rect width="24" height="24" fill="white" transform="translate(12 12)"/>
</clipPath>
</defs>
</svg>
