<svg width="20" height="20" viewBox="0 0 20 20" fill="none" xmlns="http://www.w3.org/2000/svg">
<path d="M9.16667 2.5H3.33333C2.8731 2.5 2.5 2.8731 2.5 3.33333V9.16667C2.5 9.6269 2.8731 10 3.33333 10H9.16667C9.6269 10 10 9.6269 10 9.16667V3.33333C10 2.8731 9.6269 2.5 9.16667 2.5Z" stroke="#5C6F7F" stroke-width="1.5" stroke-linecap="round" stroke-linejoin="round"/>
<path d="M17.0834 13.3334H13.75C13.5199 13.3334 13.3334 13.5199 13.3334 13.75V17.0834C13.3334 17.3135 13.5199 17.5 13.75 17.5H17.0834C17.3135 17.5 17.5 17.3135 17.5 17.0834V13.75C17.5 13.5199 17.3135 13.3334 17.0834 13.3334Z" stroke="#5C6F7F" stroke-width="1.5" stroke-linecap="round" stroke-linejoin="round"/>
<path d="M17.0834 5.83337H13.75C13.5199 5.83337 13.3334 6.01992 13.3334 6.25004V9.58337C13.3334 9.81349 13.5199 10 13.75 10H17.0834C17.3135 10 17.5 9.81349 17.5 9.58337V6.25004C17.5 6.01992 17.3135 5.83337 17.0834 5.83337Z" stroke="#5C6F7F" stroke-width="1.5" stroke-linecap="round" stroke-linejoin="round"/>
<path d="M9.58337 13.3334H6.25004C6.01992 13.3334 5.83337 13.5199 5.83337 13.75V17.0834C5.83337 17.3135 6.01992 17.5 6.25004 17.5H9.58337C9.81349 17.5 10 17.3135 10 17.0834V13.75C10 13.5199 9.81349 13.3334 9.58337 13.3334Z" stroke="#5C6F7F" stroke-width="1.5" stroke-linecap="round" stroke-linejoin="round"/>
</svg>
