<svg width="20" height="21" viewBox="0 0 20 21" fill="none" xmlns="http://www.w3.org/2000/svg">
<path fill-rule="evenodd" clip-rule="evenodd" d="M12.2692 6.23333C12.2692 7.45327 11.2668 8.46667 10 8.46667C8.73318 8.46667 7.73077 7.45327 7.73077 6.23333C7.73077 5.0134 8.73318 4 10 4C11.2668 4 12.2692 5.0134 12.2692 6.23333ZM13.7692 6.23333C13.7692 8.2952 12.0817 9.96667 10 9.96667C7.91832 9.96667 6.23077 8.2952 6.23077 6.23333C6.23077 4.17147 7.91832 2.5 10 2.5C12.0817 2.5 13.7692 4.17147 13.7692 6.23333ZM8.46342 12.5333H11.5366C13.6689 12.5333 15.5 14.351 15.5 16.7222C15.5 16.8188 15.4636 16.8929 15.4181 16.9403C15.3735 16.9867 15.33 17 15.2927 17H4.70732C4.67003 17 4.62647 16.9867 4.58194 16.9403C4.5364 16.8929 4.5 16.8188 4.5 16.7222C4.5 14.351 6.33108 12.5333 8.46342 12.5333ZM3 16.7222C3 13.5803 5.44606 11.0333 8.46342 11.0333H11.5366C14.5539 11.0333 17 13.5803 17 16.7222C17 17.7041 16.2356 18.5 15.2927 18.5H4.70732C3.76439 18.5 3 17.7041 3 16.7222Z" fill="#3F434A"/>
</svg>
